<?xml version="1.0" standalone="no"?>
<!DOCTYPE svg PUBLIC "-//W3C//DTD SVG 1.1//EN" "http://www.w3.org/Graphics/SVG/1.1/DTD/svg11.dtd" >
<!--
2013-9-30: Created.
-->
<svg>
<metadata>
Created by iconfont
</metadata>
<defs>

<font id="iconfont" horiz-adv-x="1024" >
  <font-face
    font-family="iconfont"
    font-weight="500"
    font-stretch="normal"
    units-per-em="1024"
    ascent="896"
    descent="-128"
  />
    <missing-glyph />
    
    <glyph glyph-name="x" unicode="x" horiz-adv-x="1001"
d="M281 543q-27 -1 -53 -1h-83q-18 0 -36.5 -6t-32.5 -18.5t-23 -32t-9 -45.5v-76h912v41q0 16 -0.5 30t-0.5 18q0 13 -5 29t-17 29.5t-31.5 22.5t-49.5 9h-133v-97h-438v97zM955 310v-52q0 -23 0.5 -52t0.5 -58t-10.5 -47.5t-26 -30t-33 -16t-31.5 -4.5q-14 -1 -29.5 -0.5
t-29.5 0.5h-32l-45 128h-439l-44 -128h-29h-34q-20 0 -45 1q-25 0 -41 9.5t-25.5 23t-13.5 29.5t-4 30v167h911zM163 247q-12 0 -21 -8.5t-9 -21.5t9 -21.5t21 -8.5q13 0 22 8.5t9 21.5t-9 21.5t-22 8.5zM316 123q-8 -26 -14 -48q-5 -19 -10.5 -37t-7.5 -25t-3 -15t1 -14.5
t9.5 -10.5t21.5 -4h37h67h81h80h64h36q23 0 34 12t2 38q-5 13 -9.5 30.5t-9.5 34.5q-5 19 -11 39h-368zM336 498v228q0 11 2.5 23t10 21.5t20.5 15.5t34 6h188q31 0 51.5 -14.5t20.5 -52.5v-227h-327z" />
    

    
    <glyph glyph-name="jichutaizhangguanli" unicode="&#58896;" d="M915.590144 748.335872 105.64608 748.335872c-24.046592 0-43.54048-19.493888-43.54048-43.54048L62.1056-105.148672c0-24.045568 19.493888-43.54048 43.54048-43.54048l809.944064 0c24.045568 0 43.54048 19.493888 43.54048 43.54048L959.130624 704.795392C959.130624 728.841984 939.636736 748.335872 915.590144 748.335872zM895.642624-83.152128l-768 0 0 640 768 0L895.642624-83.152128zM191.130624 492.335872l168.96 0 0-63.488-168.96 0 0 63.488ZM191.130624 364.335872l108.544 0 0-63.488-108.544 0 0 63.488ZM191.130624 236.335872l168.96 0 0-63.488-168.96 0 0 63.488ZM191.130624 108.335872l108.544 0 0-63.488-108.544 0 0 63.488ZM831.130624 492.335872l-384 0 0-191.488 384 0L831.130624 492.335872zM767.642624 364.335872l-256 0 0 64.512 256 0L767.642624 364.335872zM447.642624 44.847872l384 0 0 191.488-384 0L447.642624 44.847872zM512.154624 172.847872l256 0 0-64.512-256 0L512.154624 172.847872z"  horiz-adv-x="1024" />

    
    <glyph glyph-name="tucengmuluguanli" unicode="&#983392;" d="M912.277988 539.267273 511.754918 816.231235 111.175567 539.267273l400.579351-276.989545L912.277988 539.267273zM511.754918 200.495616 158.172951 435.935859l-46.997384-49.260937 400.579351-276.992615 400.523069 276.992615-47.614437 50.324152L511.754918 200.495616zM511.754918 47.903266 158.172951 283.371138l-46.997384-49.288566 400.579351-276.962939 400.523069 276.990568-47.614437 50.2955L511.754918 47.903266z"  horiz-adv-x="1024" />

    
    <glyph glyph-name="tianjia" unicode="&#58955;" d="M817.226656 377.376275 587.673493 377.376275 587.673493 606.929438c0 42.259476-34.258245 76.517721-76.517721 76.517721-42.259476 0-76.517721-34.258245-76.517721-76.517721l0-229.553163L205.084888 377.376275c-42.259476 0-76.517721-34.258245-76.517721-76.517721 0-42.259476 34.258245-76.517721 76.517721-76.517721l229.553163 0 0-229.553163c0-42.259476 34.258245-76.517721 76.517721-76.517721 42.259476 0 76.517721 34.258245 76.517721 76.517721L587.673493 224.340833 817.226656 224.340833c42.259476 0 76.517721 34.258245 76.517721 76.517721C893.744377 343.11803 859.486132 377.376275 817.226656 377.376275z"  horiz-adv-x="1024" />

    
    <glyph glyph-name="dingwei" unicode="&#58884;" d="M536.380952 763.286857C334.409143 763.286857 170.666667 596.96 170.666667 391.769905s365.714286-603.721143 365.714286-603.721143S902.095238 186.57981 902.095238 391.769905 738.352762 763.286857 536.380952 763.286857zM536.380952 298.878476c-75.776 0-137.167238 62.366476-137.167238 139.312762S460.604952 577.504 536.380952 577.504c75.727238 0 137.167238-62.366476 137.167238-139.312762S612.10819 298.878476 536.380952 298.878476z"  horiz-adv-x="1024" />

    
    <glyph glyph-name="shuqianguanli" unicode="&#59564;" d="M847.673597 682.601772 847.673597 549.150364 355.903338 60.694593 480.294392-60.407556 959.69595 415.719422 959.69595 682.601772ZM540.423865 828.408579 64.303027 348.987578 334.487585 85.405391l479.414861 476.107535L813.902446 828.408579 540.423865 828.408579zM706.349895 671.9819c-26.816762 0-48.543599 21.74628-48.543599 48.564066 0 26.810622 21.725814 48.543599 48.543599 48.543599 26.817786 0 48.557926-21.731954 48.557926-48.543599C754.90782 693.72818 733.16768 671.9819 706.349895 671.9819z"  horiz-adv-x="1024" />

    
    <glyph glyph-name="dikuaixinxizuhechaxun" unicode="&#59691;" d="M772.284583 725.399507 156.642085 725.399507 156.642085 417.591049l615.642498 0L772.284583 725.399507zM433.702238 479.144964 248.991376 479.144964l0 61.554938 184.710862 0L433.702238 479.144964zM433.702238 602.278375 248.991376 602.278375l0 61.554938 184.710862 0L433.702238 602.278375zM679.934269 479.144964l-184.67607 0 0 61.554938 184.67607 0L679.934269 479.144964zM679.934269 602.278375l-184.67607 0 0 61.554938 184.67607 0L679.934269 602.278375zM608.820628 325.240735c33.981952 27.489074 77.241198 43.965328 124.353193 43.965328 13.389962 0 26.466792-1.337461 39.111786-3.871167l0 21.459754L156.642085 386.794649l0-277.038664 388.42759 0c-6.339382 19.379373-9.780761 40.070624-9.780761 61.568241l-40.030715 0 0 61.566194 49.813522 0c3.494591 10.686387 7.875365 20.971637 13.057387 30.770817l-62.869886 0 0 61.578474L608.820628 325.239711zM433.702238 171.325249 248.991376 171.325249l0 61.566194 184.710862 0L433.702238 171.325249zM433.702238 263.662261 248.991376 263.662261l0 61.578474 184.710862 0L433.702238 263.662261zM558.132178 78.973912 125.858988 78.973912 125.858988 756.182604l677.208693 0 0-399.687028c22.838148-8.624425 43.657312-21.347191 61.567217-37.281091L864.634898 817.749822 64.303027 817.749822l0-800.342104 544.512485 0C588.031139 34.221662 570.724984 55.155437 558.132178 78.973912zM949.829232 7.963625l-66.283636 66.454528c-1.127683 1.127683-2.368954 1.979074-3.564175 2.921539 16.380062 25.146727 25.951045 55.102992 25.951045 87.38114 0 88.658226-71.827909 160.51888-160.51888 160.51888-88.62241 0-160.542416-71.861678-160.542416-160.51888 0-88.667435 71.918983-160.520927 160.542416-160.520927 32.255635 0 62.268182 9.595542 87.448678 25.976628 0.919952-1.218758 1.749854-2.440585 2.877537-3.53143l66.281589-66.479087c6.603395-6.603395 15.254425-9.914814 23.904433-9.914814 8.627495 0 17.253966 3.311419 23.880897 9.893324C962.988949-26.650731 962.988949-5.243165 949.829232 7.963625zM745.413586 54.886307c-60.554144 0-109.835547 49.28038-109.835547 109.835547 0 60.530608 49.281403 109.845781 109.835547 109.845781 60.530608 0 109.834524-49.314149 109.834524-109.845781C855.24811 104.166687 805.944194 54.886307 745.413586 54.886307z"  horiz-adv-x="1024" />

    
    <glyph glyph-name="iconfontoptionbutton" unicode="&#58950;" d="M512 810.666667c-235.642667 0-426.666667-191.026667-426.666667-426.666667s191.024-426.666667 426.666667-426.666667c235.64 0 426.666667 191.026667 426.666667 426.666667S747.64 810.666667 512 810.666667zM512 0c-212.08 0-384 171.925333-384 384 0 212.077333 171.92 384 384 384 212.074667 0 384-171.922667 384-384C896 171.925333 724.074667 0 512 0zM512 384m-234.666667 0a88 88 0 1 0 469.333333 0 88 88 0 1 0-469.333333 0Z"  horiz-adv-x="1024" />

    
    <glyph glyph-name="suoxiaochuangkou" unicode="&#58934;" d="M243.087411 366.602771c-31.417547 0-56.886615 15.281031-56.886615 34.132378l0 0c0 18.850323 25.469068 34.132378 56.886615 34.132378l568.865125 0c31.417547 0 56.886615-15.281031 56.886615-34.132378l0 0c0-18.850323-25.469068-34.132378-56.886615-34.132378L243.087411 366.602771z"  horiz-adv-x="1024" />

    
    <glyph glyph-name="jinyong" unicode="&#59006;" d="M508-94.4c-261.6 0-474.4 212-474.4 474.4S246.4 854.4 508 854.4s474.4-212 474.4-474.4S769.6-94.4 508-94.4zM508 759.2c-209.6 0-379.2-169.6-379.2-379.2 0-209.6 169.6-379.2 379.2-379.2s379.2 169.6 379.2 379.2C887.2 589.6 717.6 759.2 508 759.2zM697.6 332.8 318.4 332.8c-26.4 0-47.2 21.6-47.2 47.2 0 26.4 21.6 47.2 47.2 47.2l379.2 0c26.4 0 47.2-21.6 47.2-47.2C744.8 353.6 724 332.8 697.6 332.8z"  horiz-adv-x="1024" />

    
    <glyph glyph-name="mianji" unicode="&#58923;" d="M819.2 76.8 122.88 76.8 122.88 691.2 368.64 691.2 368.64 773.12 40.96 773.12 40.96-5.12 901.12-5.12 901.12 240.64 819.2 240.64ZM294.912 445.44l0 40.96L241.664 486.4l0-315.392 49.152 0 0 135.168c0 40.96 4.096 69.632 12.288 86.016s20.48 28.672 32.768 40.96C352.256 441.344 368.64 445.44 385.024 445.44s28.672-4.096 40.96-12.288 16.384-20.48 20.48-32.768S450.56 363.52 450.56 330.752l0-159.744 49.152 0 0 122.88c0 40.96 4.096 69.632 8.192 86.016 4.096 20.48 16.384 32.768 32.768 45.056 16.384 12.288 32.768 16.384 49.152 16.384s32.768-4.096 40.96-12.288c12.288-8.192 16.384-20.48 20.48-32.768S655.36 363.52 655.36 334.848l0-172.032 53.248 0 0 172.032c0 57.344-12.288 98.304-32.768 118.784S630.784 486.4 602.112 486.4s-49.152-8.192-69.632-20.48-32.768-28.672-40.96-45.056c-4.096 16.384-16.384 28.672-32.768 40.96-20.48 12.288-40.96 20.48-65.536 20.48C348.16 494.592 315.392 478.208 294.912 445.44zM864.256 420.864l69.632 73.728c20.48 20.48 32.768 40.96 45.056 57.344 8.192 16.384 16.384 32.768 16.384 53.248 0 24.576-8.192 45.056-28.672 65.536S921.6 691.2 892.928 691.2s-49.152-8.192-69.632-28.672-28.672-45.056-32.768-77.824l36.864 0c0 24.576 8.192 40.96 20.48 53.248 12.288 12.288 24.576 16.384 40.96 16.384s32.768-4.096 45.056-16.384 16.384-24.576 16.384-40.96-4.096-28.672-12.288-40.96c-8.192-12.288-20.48-28.672-40.96-49.152L778.24 379.904l212.992 0 0 36.864-126.976 0L864.256 420.864z"  horiz-adv-x="1024" />

    
    <glyph glyph-name="xuankuang" unicode="&#58919;" d="M873.411765-128 150.588235-128C67.433412-128 0-60.566588 0 22.588235L0 745.411765C1.204706 827.060706 37.526588 895.728941 120.470588 896L903.529412 896C986.684235 896 1024 828.566588 1024 745.411765L1024 22.588235C1024-60.566588 956.566588-128 873.411765-128ZM963.764706 745.411765C963.764706 795.316706 923.316706 835.764706 873.411765 835.764706L150.588235 835.764706C100.683294 835.764706 60.235294 795.316706 60.235294 745.411765L60.235294 22.588235C60.235294-27.316706 100.683294-67.764706 150.588235-67.764706L873.411765-67.764706C923.316706-67.764706 963.764706-27.316706 963.764706 22.588235L963.764706 745.411765Z"  horiz-adv-x="1024" />

    
    <glyph glyph-name="region" unicode="&#58995;" d="M94.208 510.976h-65.536v-126.976h65.536v126.976zM94.208 318.464h-65.536v-126.976h65.536v126.976zM94.208 703.488h-65.536v-126.976h65.536v126.976zM864.256 769.024h65.536l0 126.976h-126.976v-65.536h65.536l-0-61.44zM737.28 896h-126.976v-65.536h126.976v65.536zM864.256 572.416h65.536l0 131.072h-65.536l-0-131.072zM221.184 830.464h126.976l0 65.536h-126.976v-65.536zM544.768 896h-126.976v-65.536h126.976v65.536zM995.328 318.464l-516.096 385.024v-708.608l180.224 217.088 200.704-335.872 110.592 65.536-200.704 335.872 225.28 40.96zM221.184-5.12h126.976v65.536l-126.976 0v-65.536zM28.672 769.024h65.536v61.44h65.536v65.536h-131.072v-126.976zM94.208 121.856h-65.536v-126.976h126.976v65.536l-61.44 0v61.44z"  horiz-adv-x="1024" />

    
    <glyph glyph-name="xiaosanjiao" unicode="&#58883;" d="M831.547315 512.185474 511.716033 192.355215 191.913403 512.156822Z"  horiz-adv-x="1024" />

    
    <glyph glyph-name="asterisks-1-copy" unicode="&#58920;" d="M804.43 482.715l-258.228-98.715 258.14-98.715c65.75-25.363 103.75-45.601 113.914-60.801 10.074-15.201 15.201-30.401 15.201-45.601 0-40.563-7.687-63.364-23.067-68.314-15.289-5.125-30.667-7.599-45.955-7.599-15.466 0-30.754 3.801-46.043 11.399-15.377 7.599-33.228 18.999-53.644 34.201l-237.461 212.628 53.731-318.941c5.037-15.201 7.599-29.164 7.599-41.801 0-12.725 0-21.562 0-26.601 0-30.401-7.599-51.964-22.976-64.513-15.377-12.725-33.228-18.999-53.644-18.999-15.643 0-32.522 5.037-50.814 15.201-18.293 10.074-27.307 32.875-27.307 68.314 0 10.074 1.326 20.238 3.889 30.401 2.652 10.074 3.889 22.8 3.889 38.001l62.391 318.941-241.968-212.628c-15.643-10.162-32.522-20.238-50.814-30.401s-35.085-15.201-50.639-15.201c-15.643 0-31.197 5.037-46.837 15.201-15.643 10.074-23.419 30.401-23.419 60.801 0 20.238 7.599 38.001 22.8 53.201s50.55 32.875 106.314 53.201l258.405 98.626-258.228 98.715c-35.438 15.201-65.84 29.075-91.114 41.801-25.363 12.637-38.001 34.201-38.001 64.513 0 25.275 7.599 44.275 22.889 57.001 15.377 12.548 30.578 18.999 46.043 18.999 15.289 0 31.902-3.801 49.842-11.399 17.764-7.599 34.377-18.999 49.842-34.201l237.549-212.628-53.644 318.941c0 15.201-1.326 27.749-3.889 38.001-2.652 10.074-3.801 20.238-3.801 30.401 0 20.238 7.599 39.15 22.976 57.001 15.377 17.586 33.317 26.511 53.644 26.511 31.283 0 51.877-10.162 62.481-30.401 10.339-20.238 15.643-38.001 15.643-53.201 0-10.162 0-21.562 0-34.201 0-12.725-2.652-24.037-7.866-34.201l-62.391-318.852 241.879 212.628c20.769 20.238 38.883 32.875 54.615 38.001 15.643 5.037 31.197 7.599 46.837 7.599 20.769 0 37.648-7.599 50.639-22.8s19.708-32.963 19.708-53.201c0-20.238-5.125-36.763-15.201-49.402-10.252-12.637-48.163-31.637-113.914-56.913z"  horiz-adv-x="1024" />

    
    <glyph glyph-name="shuqiantubiao" unicode="&#59363;" d="M254.102945 316.225396 259.559489 760.452278 577.634534 766.013904 895.709603 771.575532l0-449.383169 0-449.383154-161.561932 160.614371L572.585724 194.03795 410.616076 33.018237 248.6464-128.001444 254.102945 316.225396ZM128.290419 455.840723l0 435.880623L451.414276 891.721347c271.079933 0 323.123879-4.789802 323.123879-29.738368 0-24.534255-50.360955-30.71893-287.782206-35.341672L198.973765 821.038002 188.876143 428.885843C181.450208 140.491818 172.099278 34.51464 153.534471 28.346883 133.859911 21.810427 128.290419 116.126744 128.290419 455.840723Z"  horiz-adv-x="1024" />

    
    <glyph glyph-name="iconguodian-copy" unicode="&#58881;" d="M512.572 708.455c-109.799-30.179-193.095-171.926-193.095-342.155 0-21.492 1.357-42.551 3.971-62.907 18.78-6.032 38.532-11.116 59.158-14.762-4.3 27.393-6.58 55.986-6.58 85.872 0 141.154 52.572 261.381 126.345 306.502-58.178-63.597-95.705-164.965-95.705-279.808 0-41.637 4.921-81.333 13.985-118.134 27.541-3.127 56.354-4.462 85.825-3.127 154.947 6.006 284.31 72.151 329.597 158.917-27.436 153.247-161.701 269.599-323.332 269.599h-0.169zM400.242 215.691c-5.146 15.795-9.634 32.231-13.361 49.325-21.472 4.866-41.714 10.977-60.599 18.050 2.777-16.828 6.643-33.565 10.991-49.486 19.865-7.122 40.903-13.322 62.969-17.889zM413.959 179.667c-21.577 2.604-42.615 6.494-62.318 11.486 16.061-40.869 37.798-76.613 63.675-104.592-35.421 21.681-66.018 60.623-88.215 111.086-48.929 14.754-89.965 35.932-119.358 60.819 48.496-120.821 166.819-206.309 304.998-206.309 7.614 0 15.123 0.426 22.743 0.969-49.579 14.211-92.572 60.681-121.526 126.54zM534.835 252.733c-37.393-1.522-73.47 0.412-107.249 4.977 5.362-17.231 11.817-34.354 19.137-50.142 24.135-3.239 49.383-4.971 75.099-4.971 118.596 0 223.572 34.753 289.233 88.267-46.908-67.703-170.965-116.415-316.717-116.414-10.39 0-20.761 0.37-31.015 0.754 32.491-56.022 76.841-96.759 127.51-113.565 143.131 34.858 249.532 163.295 250.407 316.787-45.344-68.373-164.582-120.142-306.406-125.694zM309.815 244.689c-4.817 16.116-8.894 32.994-12.055 50.47-34.939 16.905-62.668 37.721-80.49 61.74 22.038-16.681 48.167-31.254 77.386-43.188-3.859 25.361-5.712 52.069-5.712 79.294 0 130.861 45.279 243.636 110.702 295.763-125.749-46.121-215.412-166.83-215.412-308.499 0-12.772 0.713-25.661 2.097-38.153 25.15-39.326 68.325-72.947 123.483-97.428zM-62.699 950.129l-17.702 16.859 8.69 9.402c0-4.985-0.327-9.728-1.324-13.22 8.518 0.724 13.821 0.724 16.158 0.724 2.545-0.498 4.765-0.724 6.43-0.724l-12.244-13.036zM-93.402 890.994l11.006 12.044 50.084 51.851 12.172 11.774-14.162 14.090-9.073-10.667c-0.397 4.357-0.557 8.506-0.597 12.423h-6.653l-8.788-0.654c-1.563 0-3.782 0-6.486 0.327l10.125 9.402-14.831 13.649-7.961-8.676-15.769-16.242-13.239 12.044 16.839 17.199 12.060 11.388-14.831 13.859-11.831-12.654-47.825-49.354-11.577-11.27 14.548-13.604 10.962 11.673 16.497 17.071 12.955-12.485-13.281-13.493-11.404-11.388 14.715-13.38 10.85 11.728 12.717 13.818 18.117-17.313-29.508-30.006 14.18-13.149zM-191.253 949.020l88.933-83.904 14.886-14.813 15.714 15.922-1.879 2.004 77.486 80.071 2.858-2.697 16.18 16.687-16.18 14.101-89.744 85.051-14.122 13.989-12.288-13.548-83.573-86.214-13.221-13.052 14.946-13.59zM-175.31 964.727l77.477 79.971 87.67-82.741-77.684-80.481-87.454 83.25zM112.69 1068.853c8.859 13.265 15.209 23.759 19.257 32.066-0.996 1.477-2.205 2.19-3.202 2.585-6.428-10.013-12.060-18.293-17.551-25.708-5.046-7.839-13.779-17.353-25.356-28.364-2.258 1.445-4.577 3.44-6.302 5.025-2.162 1.009-6.43 3.44-12.575 6.974 5.986 4.303 10.978 8.178 15.062 12.1 4.097 4.263 8.957 9.342 14.274 15.931 5.319 7.129 10.066 14.029 14.502 21.487l-2.431 0.835c-6.756-7.471-11.689-12.54-15.289-15.708-3.484-3.863-9.836-9.328-17.701-16.672-2.277 1.803-4.481 3.463-6.201 4.684-1.879 1.55-6.3 4.303-13.221 8.123 4.707 3.152 11.346 7.841 20.134 13.989 8.265 5.854 17.776 16.078 28.068 30.176l-24.358-12.213-14.050-8.123-8.805 17.454 13.948 6.628 68.573 35.606 15.945 8.505 8.633-17.471-15.713-7.684-24.256-12.541c3.114-0.454 5.927-0.781 9.526-1.223-4.308-6.675-8.077-12.54-12.060-18.334 6.967-0.834 11.18-2.002 13.067-2.827l5.303-3.099c8.416 15.309 12.941 24.699 14.047 28.132l4.21 11.317c2.659-1.223 5.035-1.931 7.081-2.925 2.443-0.157 7.866-1.333 17.165-2.542-5.205-8.96-9.525-16.405-12.954-23.376 2.431-2.766 6.982-6.688 12.626-11.774 5.86-4.971 13.609-8.449 23.677-10.497 10.081-2.429 20.053-3.209 30.105-2.429-1.436-4.217-2.474-7.743-2.646-10.396-0.77-3.111-1.339-7.852-1.891-13.933-14.377 0.212-24.94 2.215-32.653 4.971-7.961 2.657-14.62 6.080-20.59 10.183-6.031 4.176-12.499 9.174-19.581 16.571l-4.55-6.644c1.891-2.103 3.442-4.642 4.766-6.831 1.837-2.004 4.322-6.319 7.75-13.010 3.327-6.006 5.86-11.986 7.025-15.962 1.164-4.985 1.164-10.070-0.613-14.928-1.652-4.874-8.957-11.162-22.071-17.909-5.433 6.292-8.805 10.323-10.58 11.27l-7.027 5.636c9.317 3.152 15.005 5.41 16.041 8.505 1.396 2.429 1.563 5.426 0.116 8.409-1.151 3.709-2.378 6.479-3.372 8.278l-1.107 1.985c-3.713-7.287-8.956-14.74-15.158-24.527-6.541-9.007-12.4-16.419-17.493-21.845l-17.262-18.733c-5.151 4.031-8.859 6.191-11.404 7.852l-9.187 4.303c16.591 13.268 29.444 25.975 38.291 38.586zM37.269 1110.958l-4.21 8.96-9.471 18.022-6.412 11.27 18.529 8.391 44.223 23.106c-3.254 0.834-7.423 2.556-13.053 3.537 1.879 2.103 3.811 3.977 4.976 5.854 1.263 1.559 4.252 5.979 7.961 12.287 10.353-2.103 18.314-4.085 23.077-5.654-0.822-1.877-1.717-3.749-2.315-5.41l47.211 24.31 16.82 9.189 5.86-11.717 9.629-18.247 5.091-8.505-21.134-10.954-4.435 9.346-6.074 11.662-106.054-54.548 5.761-11.317 4.993-8.96-20.969-10.62zM321.444 1241.617l34.754 5.988 3.442-21.118-34.97-5.465-3.227 20.594zM298.154 1243.847l11.066-70.411 2.386-19.185 23.235 4.022-0.543 2.271 34.97 5.919 4.21-27.084c0.498-3.749 1.436-6.861 2.871-9.613 1.324-2.046 3.542-4.431 7.521-5.584 3.825-1.506 9.255-1.888 16.268-0.397 6.982 0.881 16.169 2.117 27.687 3.666 11.735 1.091 20.747 2.695 26.337 3.733 5.373 1.334 9.526 2.896 12.172 3.993 2.601 1.987 4.933 3.979 6.928 7.071 1.821 3.099 3.926 10.954 5.587 24.213-6.982 1.037-14.715 3.478-23.86 7.526v-7.526c0-5.199-0.598-8.846-2.7-10.623-2.219-2.37-5.035-3.961-8.516-4.743-3.771-1.151-9.855-1.877-18.483-3.099l-20.21-2.657c-4.21-0.327-7.025 0-8.346 0.77-1.396 1.559-2.004 2.783-2.117 4.317l-3.199 19.514 39.844 5.81 0.543-3.437 22.811 3.437-2.986 17.908-11.391 71.855-1.888 15.906-14.946-2.657-48.261-7.413-1.263 10.070-2.047 14.699-23.026-3.71 2.889-14.525 1.436-9.94-40.723-6.31-17.223-2.327 2.985-15.463zM327.589 1201.499l35.153 5.099 3.383-20.239-34.926-5.637-3.611 20.774zM378.682 1251.242l39.632 5.749 3.424-21.172-39.687-5.908-3.372 21.328zM384.937 1210.016l39.888 6.406 3.114-20.719-39.807-6.251-3.199 20.565zM605.924 1240.523l3.424-7.070c0.835-2.218 3.982-9.346 9.302-21.010-3.599-7.454-7.197-12.82-10.736-16.359-3.102-3.764-7.409-7.41-12.003-11.333l10.012 55.773zM587.764 1135.628l3.771 24.256 3.982 22.155c3.998-5.411 6.412-9.484 7.691-11.76 1.011-2.388 2.317-4.26 3.557-6.628 7.904 7.892 13.212 13.305 15.328 15.62 2.205 2.768 4.198 4.985 5.531 7.424l1.534-5.981c0.439-0.327 0.782-3.423 0.895-7.287l5.091 3.197c2.87 1.877 8.077 4.094 15.826 7.086-3.495 9.277-6.242 18.191-9.411 26.858l2.987 5.523c1.225 2.713 2.93 6.957 6.031 13.819 4.507-7.626 7.769-12.71 8.476-15.154 0.996-2.315 2.999-6.957 5.319-14.471l-4.208-7.3c-2.871-5.199-6.697-9.714-10.962-14.852-4.252-4.148-10.41-9.358-17.262-14.484 5.36-3.764 9.072-7.374 10.679-9.060 1.776-1.831 3.424-4.158 5.488-6.137 3.868 2.644 7.511 5.523 10.241 8.278 2.545 2.585 7.904 8.948 16.096 18.672l2.947-11.105c0.381-1.038 1.038-4.416 2.035-9.714 7.312 5.298 13.948 9.431 19.982 12.639l-2.047 6.758c-0.212 0.208-3.484 8.833-9.517 24.853l4.765 11.178c1.263 3.977 3.441 9.459 6.031 16.469l3.597 10.596c0.439 1.106 0.655 3.11 1.707 5.327-7.123 1.53-14.335 4.416-22.084 7.168l-0.995-5.636c-0.481-3.421-2.205-9.174-5.036-17.78-2.59 4.575-4.809 9.346-6.739 13.248l-4.594-2.87c-2.771-1.77-6.982-3.421-13.296-4.985l3.766 8.96c0.127 0.439 0.655 1.888 1.551 4.756 1.225 2.657 1.837 5.309 2.545 7.017-8.745 2.327-15.826 4.814-21.588 8.178l-1.652-7.839c-0.668-2.766-1.507-5.482-2.117-8.691-0.867-2.585-2.035-5.356-3.639-8.123-2.431 5.535-4.647 10.563-6.928 15.425-5.186-3.309-9.015-4.857-10.907-5.627-2.035-0.339-3.753-1.063-5.803-1.678l4.368 24.982 103.951-17.679-19.041-106.993c-0.557-2.004-0.996-3.55-2.047-4.875-1.055-0.995-4.054-0.995-8.645-0.226-3.581 0.781-7.619 1.774-11.774 3.092l1.551-6.31c1.652-5.795 2.205-10.609 2.205-13.265 0-3.199-0.327-5.069-0.327-7.399 11.673-1.091 20.479-1.091 26.010-0.327 5.587 1.106 9.187 2.656 10.524 6.137 1.55 3.099 2.474 6.628 2.985 10.097l20.649 115.646 4.368 21.771-22.141 3.494-105.714 18.22-22.142 4.373-3.424-22.055-19.367-108.977-4.822-23.718 24.188-4.293zM842.299 1142.956c-1.377 9.799-2.93 16.928-4.368 20.308l-2.112 5.967c7.849-1.333 17.050 0 27.673 2.598 10.524 2.37 20.133 6.304 29.78 10.609 9.399 4.587 17.59 9.884 24.8 15.867l4.425 3.604c4.646-7.44 9.841-14.119 15.371-20.353-11.559-6.917-21.802-12.78-29.934-17.252-8.134-4.416-18.544-8.465-31.153-12.423-12.78-3.879-24.129-6.862-34.481-8.922zM839.861 1103.887c3.385 0.95 8.463 2.327 14.886 4.528 6.37 2.103 12.73 5.274 19.654 7.953 6.585 3.11 13.324 7.086 20.080 11.886 6.867 4.26 11.074 7.372 12.853 8.905l3.639 3.537c4.324-8.735 9.185-16.516 14.606-24.322-3.743-1.977-6.756-2.967-8.403-3.749l-14.721-6.974c-7.081-3.252-13.948-6.387-21.029-9.046-7.025-3.111-15.729-5.979-25.892-8.691 21.029-10.879 41.95-20.719 62.638-30.889-0.995 9.94-1.607 16.516-2.329 19.245l-2.319 12.142c9.797-1.65 15.942-1.65 18.817-1.364l4.931 0.866c4.039-27.463 6.642-49.904 8.918-67.472-13.605-1.551-19.882-2.783-20.487-2.783l-6.867-1.98c0.455 3.209 0.455 5.795 0.455 7.852 0.557 2.429 0 6.174-0.455 12.579-10.393 4.431-25.556 11.178-45.646 19.911-19.81 8.948-31.982 13.59-36.534 15.922-4.479 1.589-10.066 3.309-16.541 4.699 2.317 9.402 3.044 15.58 2.986 19.953l-0.558 6.176c7.868 0.33 13.383 0.726 17.323 1.107zM958.461 1185.819c6.201-4.603 13.625-8.522 21.487-12.386-1.678-2.657-2.771-4.203-3.441-6.645-1.322-1.65-2.336-3.865-3.315-6.898-1.066-3.152-1.987-8.791-3.424-16.532-0.685-8.178-0.183-15.634 2.319-22.268 2.090-6.898 4.425-12.452 6.186-15.922 1.678-3.494 4.012-6.628 5.373-8.563 1.719-2.88 5.322-6.759 10.581-11.388-2.047-0.724-4.647-2.004-6.811-3.099-2.162-1.164-7.919-5.086-17.108-10.954-6.201 8.521-11.846 18.075-15.443 27.365-3.926 9.217-6.467 17.839-7.181 26.137-0.738 7.298-0.613 14.711 0 22.169 1.151 7.143 2.145 13.053 3.254 17.184 1.11 4.752 3.426 11.726 7.525 21.795zM1069.493 957.316l18.256 16.686 33.761-35.588-18.157-16.701-33.862 35.606zM1169.431 966.162l-53.684 56.692-13.837 15.597-16.158-14.912 15.103-14.766 53.638-56.539 15.158-17.199 16.158 14.33-16.382 16.799zM1134.351 1028.179l72.495-76.389-83.12-76.943c-2.676-2.87-4.535-3.537-6.098-3.537-1.437 0-3.199 0.668-5.86 3.936-1.164 0.381-2.943 2.683-4.765 4.756-2.158 2.356-4.081 5.012-5.974 6.898l-2.926-6.59c-1.437-3.807-3.385-6.56-5.205-9.008-2.162-2.697-3.811-4.473-5.26-6.62 11.076-10.338 18.817-16.245 23.906-17.867 4.646-2.373 8.206-2.695 10.308-1.985 2.147 0.668 5.306 2.713 9.517 6.577l92.588 85.493 14.56 12.451-14.562 14.813-74.314 78.59-16.223 17.679-16.223-14.585 17.164-17.676zM1075.919 992.746l-23.634-21.879-13.906-11.27 13.623-13.265 38.181-40.19 13.281-15.139 12.513 12.386 23.69 21.757 12.71 11.063-14.377 13.933-38.237 41.217-12.131 13.504-11.718-12.098zM-206.3 686.721l5.076-4.945-4.976-10.109-39.573 8.065 1.055 12.878c9.684 0 18.331 1.604 25.451 5.584 7.089 3.452 12.288 8.522 15.729 14.711 2.106 4.635 2.986 9.503 1.879 13.197-0.543 3.945-3.088 7.14-6.685 8.574-5.814 2.768-15.615-3.437-28.741-18.886-2.109-2.117-3.484-4.107-4.637-4.875-9.371-11.27-18.043-17.92-25.908-20.023-7.865-2.086-16.213-1.436-25.685 3.322-12.387 5.865-20.804 14.927-24.901 25.708-3.881 11.317-3.227 22.395 2.757 34.211 2.545 5.636 5.758 10.295 9.855 14.711 3.542 3.863 8.194 7.667 13.053 10.809l-6.412 5.056 4.481 9.884 50.309-8.677-1.377-14.414c-13.008 0.37-23.479-1.559-32.662-5.497-9.342-4.35-15.886-10.156-19.41-17.625-2.659-5.3-3.271-10.555-2.163-15.596 1.396-5.012 4.267-8.604 8.305-10.918 6.355-2.781 15.315 2.315 26.947 15.58 1.652 1.65 2.832 3.209 3.653 4.189 5.97 6.416 10.779 11.066 14.775 14.711 3.484 3.865 6.812 6.080 9.015 7.413 4.594 2.243 10.125 3.481 15.442 3.085 5.87 0 11.066-1.223 16.439-3.863 10.962-5.258 18.157-13.149 21.761-23.558 3.597-10.427 2.771-21.218-2.545-31.938-2.163-4.247-5.051-8.225-8.532-11.662-3.152-3.587-7.134-6.683-11.773-9.107zM-215.273 647.291l-30.115-91.697h-42.447l-0.995 11.773c11.019 1.506 19.213 3.936 24.629 7.471 5.649 3.42 9.641 8.948 12.071 15.978l0.212 1.931-69.735 22.226c-9.799 3.085-15.945 3.807-19.537 3.085-3.026-1.151-5.588-3.865-7.295-9.277l-15.655 5.025 18.091 55.428 15.328-4.686c-1.609-5.381-1.322-9.342 0.663-11.999 2.103-2.441 8.022-5.579 17.82-8.96l69.85-21.985 0.327 1.606c2.659 7.23 2.659 13.859 0.208 20.377-2.106 6.137-7.517 12.78-15.584 19.799l8.062 9.073 34.103-25.163zM-319.050 505.308l4.368 22.994 34.77-19.185-39.135-3.809zM-333.827 560.467c-0.557 0.226-1.263 0.769-2.106 1.55-11.066 6.077-16.497 13.548-16.169 21.77l-15.927 3.085-9.284-47.958 15.599-3.209c1.094 5.086 2.317 8.278 3.982 9.836 1.667 1.663 4.647 2.373 7.691 1.663 0.543 0 1.055-0.551 1.776-0.895 0.598 0 1.164-0.481 2.205-0.77l16.451-7.839-6.656-35.277-18.928-2.429c-0.881-0.54-1.837-0.54-2.545-0.54-1.107 0.54-2.103 0.54-3.211 0.54-2.317 0.226-4.425 1.774-5.319 3.309-0.654 2.002-0.654 5.099 0 9.402v1.334l-15.371 2.967-10.464-56.208 15.769-3.139c2.106 6.628 8.799 10.667 19.611 12.485l0.979 0.551 101.446 13.933 5.262 26.090-84.798 49.749zM-259.612 447.933l-4.095-96.502-40.898-11.616-4.426 11.616c10.563 3.975 17.55 8.239 21.644 13.248 4.577 4.875 6.913 11.504 6.913 18.914l0.439 1.49-73.049 3.537c-10.512 0.37-17.108-0.427-20.093-1.931-2.601-2.103-4.252-5.523-4.823-10.954l-16.158 0.663 2.545 58.253 16.268-0.707c0-5.482 1.437-9.017 3.881-11.289 2.889-2.032 9.127-3.692 19.593-4.13l72.821-3.092 0.613 2.103c0.212 7.684-1.607 14.145-5.414 19.185-3.998 5.227-10.907 10.1-20.433 15.508l5.319 11.075 39.346-15.38zM-262.102 337.121l12-96.071-37.455-20.169-7.639 9.728c9.187 7.396 16.041 15.139 20.139 22.95 3.881 7.895 5.433 16.348 4.479 25.081-1.038 4.971-2.319 8.676-4.479 10.070-2.147 1.589-6.642 1.915-13.78 0.809l-18.545-2.086 0.668-5.749c0.782-5.865 2.431-9.728 5.303-11.27 2.943-1.985 8.476-2.87 16.949-1.985l1.551-12.156-59.056-7.029-1.607 12.233c7.638 1.888 13.168 4.303 16.439 6.957 2.871 2.713 4.252 6.628 3.597 11.391l-0.726 5.523-30.275-3.651c-7.181-0.339-11.446-2.373-12.994-4.247-2.163-1.831-2.49-5.482-2.163-10.681 1.225-9.386 5.548-17.127 12.969-24.965 7.395-7.584 16.925-14.001 28.867-18.474l-5.531-12.269-46.812 12.269-11.902 98.275 16.151 2.215c0.613-5.696 2.615-8.96 5.319-10.623 3.102-1.533 9.682-1.533 20.319 0l50.026 5.922c10.623 1.394 16.653 2.766 19.424 4.703 2.431 2.656 3.374 6.31 2.815 11.388l15.945 1.931zM-875.565-159.481l11.413-0.439 8.027-20.139-71.778-50.068-19.629 21.314c17.108 16.761 28.278 33.313 33.978 47.441 5.399 13.026 6.014 26.87 0.975 39.395-6.673 16.245-18.908 25.262-37.689 28.235-19.084 2.955-42.518-1.036-71.773-11.996-28.278-11.070-47.882-24.043-60.112-37.962-11.413-14.101-14.369-28.867-7.834-45.3 5.473-13.297 12.849-22.553 22.995-26.778 10.466-4.228 21.338-5.279 33.808 0 8.185 2.755 13.909 7.395 16.214 12.864 2.011 4.953 1.38 12.432-1.68 21.911l27.436 10.452 37.475-95.803-27.364-11.162c-5.666 9.443-11.689 14.109-17.076 15.375-5.694 1.68-14.886-0.403-27.551-5.279l-61.606-23.617-12.878 30.576 16.565 15.595c-11.383 6.553-19.953 14.326-27.649 22.123-7.487 9.185-13.282 18.684-18.358 30.682-10.978 29.189-8.645 56.379 6.531 82.617 16.48 25.402 43.246 45.332 81.373 60.605 35.136 13.083 67.221 14.326 97.604 3.382 29.994-12.047 51.486-33.524 63.314-63.34 2.738-8.017 5.177-16.246 5.694-23.909 1.053-8.022 1.053-17.635-0.43-26.781zM-851.932-327.459c11.414 6.097 19.417 7.988 24.915 7.662 5.069-1.567 10.111-7.095 15.18-15.709 7.698-13.697 10.141-25.399 8.541-36.494-1.792-11.215-8.105-18.708-18.655-24.934-11.823-6.553-22.798-6.553-33.569-0.349-10.246 5.823-21.314 18.497-31.345 37.038-1.792 2.385-2.844 4.525-3.502 6.629-0.827 0.835-2.080 3.164-2.080 4.414l40.507 21.744zM-865.756-238.318c4.637-9.724 5.827-17.114 3.088-22.148-2.873-5.908-12.906-13.27-29.994-23.83l-85.492-45.332c-16.971-9.044-28.465-13.596-35.438-12.753-5.917 0.754-12.145 5.39-17.732 14.916l-27.036-14.916 54.466-98.196 27.003 14.188c-5.258 10.157-5.691 17.983-3.065 23.854 2.737 5.227 12.881 12.639 30.299 22.123l27.628 14.13 10.978-19.417-60.98-112.838 35.003-62.717 25.975 13.479c-3.15 7.471-4.34 14.867-4.123 21.692 0 6.771 2.556 13.297 6.455 22.15l33.108 69.346c13.746-12.864 26.812-20.228 40.426-22.448 13.834-2.007 28.173 0.941 42.953 8.957 20.469 10.53 31.668 25.399 33.753 43.81 2.145 18.55-3.584 41.94-18.358 69.156l-61.827 111.916-27.14-15.159zM-720.235-436.34l66.835-91.361-24.62-18.443c-6.643 8.902-13.395 12.753-20.255 12.753-6.123 0-17.298-6.149-33.354-17.299l-78.193-55.426c-15.808-10.747-25.321-20.553-27.218-26.674-1.577-5.766 0-13.083 6.206-22.236l-25.191-17.821-66.918 91.609 24.811 17.679c6.939-8.957 13.502-12.544 20.036-12.544 6.319 0 18.163 6.097 33.354 16.339l78.934 56.705c15.18 11.185 24.373 20.128 26.384 26.025 2.113 5.797 0 14.246-5.694 22.995l24.887 17.702zM-634.010-645.326c11.52 9.041 18.907 12.541 23.535 12.541 4.637-0.544 9.923-3.495 16.645-11.076 13.313-17.084 17.402-35.5 12.473-54.993-4.857-19.93-19.201-39.427-42.733-57.428-22.473-19.276-43.81-28.246-65.095-28.791-20.902-0.645-38.102 7.289-51.707 23.617-5.501 7.804-9.086 13.482-8.057 18.74 0.468 4.435 6.481 11.183 17.328 19.333l97.612 78.076zM-662.082-561.221c5.799-7.18 8.327-13.265 6.833-20.014-2.521-5.686-10.944-14.967-26.977-27.757l-74.322-59.087c-16.349-13.734-27.411-19.614-33.538-20.441-5.694 0-12.227 3.135-18.65 11.049l-24.398-19.068 68.818-85.591c27.004-32.146 55.474-50.068 86.306-53.638 30.369-3.682 61.442 6.629 93.268 32.146 30.825 25.071 48.159 52.587 51.083 83.456 2.738 29.326-8.949 61.545-35.466 93.495l-68.794 85.435-24.15-19.985zM-288.3-888.442l12.768 9.664 13.695-10.647-32.054-90.010-24.163 7.615c6.206 21.488 7.289 41.298 4.718 58.595-4.417 17.275-11.066 30.197-22.558 39.595-15.18 11.215-32.508 13.403-51.086 5.908-19.305-6.743-38.634-21.692-55.828-45.497-18.684-22.995-27.946-44.459-29.43-65.124-0.975-20.469 6.939-37.669 22.995-49.338 10.773-8.204 25.106-12.432 41.886-12.432 17.626-1.184 34.513 3.36 51.707 10.938l14.021-26.749c-25.406-13.701-49.594-20.857-72.178-19.61-22.341 1.68-44.195 9.044-63.933 24.674-29.125 20.553-44.736 47.63-46.639 80.505-3.173 31.733 7.593 63.229 31.858 94.213 23.022 29.728 50.356 47.87 82.544 53.749 32.054 6.743 61.413-0.622 88.233-20.85 7.044-5.908 13.724-11.833 19.305-19.177 5.157-6.666 9.818-15.955 14.124-26.025zM-112.389-1024.102c1.468-19.201-4.022-44.055-17.108-72.21-13.313-27.377-28.58-47.713-45.253-57.947-16.591-11.076-33.892-12.726-50.132-5.359-17.076 8.23-26.927 22.553-28.901 42.411-1.697 19.553 4.012 43.387 17.6 71.649 13.45 28.027 28.63 47.527 45.091 57.946 16.654 11.162 33.754 12.726 50.646 5.068 16.867-7.197 26.167-21.314 28.075-41.537zM-222.143-949.663c-30.614-11.857-54.443-34.793-70.803-69.158-16.672-35.602-20.172-68.482-10.434-98.78 10.005-31.702 31.313-54.668 64.363-70.244 32.702-15.407 64.261-16.978 94.766-4.435 30.992 11.289 54.443 35.088 71.331 69.321 16.434 34.793 20.251 68.539 10.109 99.589-10.109 30.704-31.345 53.446-64.912 69.050-32.178 15.705-63.636 17.275-94.436 4.659zM52.442-1095.042c2.955 12.161 7.374 20.255 11.713 23.397 4.637 2.027 12.145 1.628 22.041-0.726 14.813-4.383 25.541-11.158 31.554-20.090 6.455-9.068 7.915-18.443 4.853-30.486-4.34-12.753-11.499-21.068-23.535-23.177-12.225-4.493-27.956-2.438-48.533 3.375-3.171 1.897-5.799 1.897-7.374 2.737-1.925 0.676-3.502 1.489-4.637 2.080l13.905 42.89zM-20.985-1040.1c9.675-4.228 16.022-9.068 18.326-15.163 1.819-5.173 0-17.735-5.886-36.607l-27.767-91.335c-5.586-18.55-11.283-30.025-16.354-34.363-4.881-2.921-12.662-4.525-22.909-1.489l-8.546-29.921 108.050-31.818 9.086 29.921c-10.358 2.735-16.675 6.96-18.575 13.152-1.68 6.638 0 19.201 5.069 38.068l9.923 28.977 21.092-6.859 37.877-122.067 68.927-20.638 9.17 28.785c-7.374 3.062-13.582 6.844-18.358 11.289-4.533 5.2-8.135 11.999-11.093 20.958l-25.947 71.978c18.791 0.949 33.569 4.58 44.848 11.996 11.302 8.23 19.742 20.044 24.373 36.697 6.755 21.314 3.69 40.128-7.157 54.993-11.846 14.763-32.729 26.348-62.064 35.602l-124.101 36.476-7.993-28.65zM302.729-1151.399c2.112 12.864 5.097 21.068 7.834 24.155 3.164 3.546 9.056 4.929 17.514 3.546 13.264-0.949 23.429-6.629 29.232-14.246 5.804-8.204 8.541-19.258 6.643-31.795-1.277-14.326-7.374-24.885-16.463-30.785-9.923-5.882-23.326-8.014-40.754-5.883-1.9 0.622-4.417 0.622-5.988 0.622-1.604 0.941-2.875 0.941-4.553 0.941l6.532 53.431zM223.715-1110.292c9.488-0.621 16.138-5.469 18.875-10.53 2.113-5.279 3.385-17.701 0.403-38.074l-12.225-94.422c-2.524-20.128-5.888-31.28-9.783-36.551-4.141-4.441-11.302-6.559-21.23-5.175l-3.179-30.255 108.265-13.732 4.022 29.763c-10.148 2.407-16.654 5.143-19.305 11.378-2.625 4.847-2.625 17.732-0.949 37.313l3.6 25.071 38.833-4.199c27.445-4.228 48.748-1.081 64.153 9.443 15.398 10.481 24.163 27.002 27.853 50.629 2.334 23.909-2.306 43.168-14.778 58.134-13.282 13.895-34.162 23.058-62.471 26.128l-118.050 15.627-4.027-30.576zM595.163-1156.672c11.063-16.441 17.92-40.078 18.277-71.358 2.007-30.466-3.088-54.993-12.663-71.978-9.521-18.297-23.776-26.999-42.023-26.999-18.908-1.347-33.542 6.769-44.521 22.88-11.191 17.191-16.894 41.026-18.384 72.513-1.004 30.255 3.417 55.13 12.909 72.707 9.488 17.329 24.163 26.163 42.215 27.483 18.655 1.081 33.649-7.118 44.195-25.261zM462.953-1139.346c-21.338-24.503-31.020-56.621-29.771-94.666 1.49-38.589 13.942-70.106 37.475-92.985 23.207-23.127 52.334-33.494 88.962-32.003 36.277 0.622 64.992 14.133 86.851 38.775 21.422 23.805 31.318 55.648 30.402 95.066-1.38 37.941-13.854 68.482-37.286 92.426-23.504 22.448-53.605 33.605-89.691 31.918-35.659-2.307-64.782-13.921-86.93-38.534zM763.695-1145.499c-2.336 12.753-1.707 21.798 1.036 25.399 2.844 3.872 9.521 7.662 20.090 9.185 15.157 2.080 27.815 0.621 36.901-3.818 10.22-6.098 16.349-14.109 17.732-26.128 2.407-12.864-1.38-22.986-10.141-30.687-9.488-8.066-24.675-14.212-45.582-17.6-3.173 0-6.343-1.68-7.513-1.68-1.981 0-3.471 0-5.045 0l-7.487 45.332zM673.76-1129.922c10.753 2.681 18.277 0 23.051-4.199 3.774-3.818 8.397-16.519 11.36-35.602l15.723-93.805c3.065-20.228 3.067-32.899 0.622-37.615-2.604-5.714-9.171-10.236-20.14-11.509l5.283-30.791 111.436 18.659-5.474 29.735c-10.58-1.38-18.163 0-22.478 4.875-4.853 4.814-8.327 15.891-11.413 36.125l-4.747 30.358 21.963 3.922 88.416-94.587 71.331 11.215-4.853 29.709c-8.859-0.827-15.509 0.835-21.932 3.062-5.723 2.219-12.367 6.844-18.784 13.38l-55.318 53.753c16.894 8.639 28.393 19.201 35.062 30.97 6.433 11.805 8.434 26.128 5.771 42.35-3.69 22.341-14.149 37.45-30.914 46.382-17.11 8.014-41.162 9.698-71.852 5.359l-127.166-20.957 5.046-30.791zM1066.538-1134.122l-42.625-16.519-3.471 75.111 46.094-58.602zM991.212-1213.251c0-0.645 0-2.215 0-4.329 0.403-23.617-6.343-40.294-20.255-48.498l10.978-28.246 88.092 33.74-10.87 27.405c-9.269-3.171-16.045-4.55-20.065-3.171-4.416 1.589-7.374 5.255-10.109 11.183 0 0.835-0.326 1.468-0.867 2.080-0.298 1.925-0.298 3.309-1.036 4.55l-3.274 35.31 64.476 25.291 23.429-28.348c0.835-0.949 1.68-2.334 3.171-4.553 0.835-0.827 1.468-2.973 2.306-5.139 1.927-4.553 1.6-8.528-0.622-12.034-2.336-2.955-6.939-5.908-14.126-9.178l-3.179-0.397 11.391-27.405 101.953 38.589-11.177 28.867c-12.576-3.467-25.975 3.030-39.477 19.598l-1.49 0.726-125.353 148.169-47.938-18.659 4.031-185.57zM1109.163-986.165l164.532 85.567 58.478-55.102-14.885-18.413c-16.699 13.27-30.828 19.794-43.604 22.958-11.801 1.49-24.59 0-37.25-6.525l-3.363-1.697 65.206-121.938c9.089-17.084 16.464-27.509 22.363-30.486 5.509-2.919 13.614-2.384 23.326 2.145l14.055-26.778-99.643-52.158-14.126 27.515c9.521 4.414 14.126 10.452 14.878 17.062 0.727 6.96-3.584 17.927-12.556 35.21l-65.428 121.956-2.955-1.628c-13.313-6.693-22.363-15.38-27.004-27.515-4.853-10.421-6.779-27.299-5.509-47.493l-23.207-1.489-13.317 78.827zM1300.802-883.026l94.359 64.45 17.731-25.42c-8.645-5.766-13.093-12.323-13.942-19.394 0-6.83 5.917-17.927 16.789-33.28l54.967-78.955c10.978-15.49 19.629-25.45 26.188-27.596 5.888-1.68 13.695 0 22.805 6.201l17.188-25.593-94.242-63.981-17.188 24.561c8.859 6.769 12.96 12.864 13.181 19.177 0 6.986-5.069 18.763-16.645 34.571l-54.075 78.827c-11.502 15.627-20.441 24.368-26.352 26.592-6.014 2.271-14.155 0-23.207-5.74l-17.541 25.582zM1562.323-756.834c18.763-7.367 37.332-24.885 56.317-48.987 18.277-23.83 28.956-47.101 30.64-67.133 2.306-20.065-4.231-35.197-18.572-46.358-15.434-10.156-32.106-12.668-51.086-4.225-18.908 7.367-36.927 22.934-55.638 47.389-19.082 26.372-29.43 47.87-31.533 67.265-1.9 20.044 4.441 35.824 19.305 46.766 15.18 11.076 31.78 13.435 50.566 5.281zM1443.915-817.977c-3.584-31.795 6.531-63.822 29.335-94.39 23.645-30.785 51.485-49.846 83.996-55.945 32.508-5.173 62.689 2.624 92.028 23.886 29.123 21.633 45.146 48.5 49.157 81.047 3.788 32.172-5.694 63.362-29.441 94.523-23.537 31.216-51.276 49.087-83.676 55.026-32.622 5.279-63.637-1.38-92.329-22.964-29.251-21.488-45.3-48.281-49.073-81.188zM11451.006-5015.5c161.441 10.62 351.143-29.85 575.878-135.593 223.029-99.953 378.793-224.497 466.027-347.468 88.262-133.676 103.261-262.479 39.974-398.932-66.561-127.697-170.435-204.363-331.078-221.898-156.785-5.941-348.126 33.347-571.881 132.848-227.136 108.914-384.677 225.5-471.932 354.282-89.853 133.676-100.697 265.281-35.101 398.695 55.18 131.34 168.116 206.919 328.051 218.061zM10857.575-5874.429c97.246-237.49 280.371-420.268 560.109-551.045 281.429-126.82 540.188-158.45 787.417-75.361 246.357 75.361 437.759 247.501 557.493 498.694 119.925 252.034 130.684 503.622 35.124 739.857-91.713 241.563-276.938 422.231-560.335 557.825-279.5 128.598-541.621 158.45-786.341 75.361-249.766-75.361-436.307-247.501-556.21-498.694-120.481-250.954-133.024-511.934-37.25-746.643zM6980.914-2366.925l289.563 831.772 371.98 34.304 16.326-105.789c-94.939-23.71-173.796-61.827-234.911-112.524-61.536-45.094-105.789-106.437-131.523-185.565-18.367-46.897-19.414-82.83-9.471-107.043 11.867-24.727 47.725-44.608 107.3-66.896l154.916-52.1 13.414 45.207c20.266 60.541 24.862 101.557 7.395 129.353-15.825 31.351-60.087 56.078-126.037 83.872l32.146 92.24 516.060-176.133-32.78-91.627c-65.99 11.321-118.158 11.321-157.845 0-39.787-13.984-68.15-44.731-83.451-89.331l-16.963-45.649 186.794-65.136c90.491-27.282 144.996-40.126 173.927-30.092 30.719 10.443 55.504 37.59 74.397 83.312l138.058-45.761-177.364-507.473-137.551 46.155c14.935 52.644 14.96 87.822-4.885 111.146-15.425 25.85-67.535 50.222-157.079 82.333l-429.55 146.999c-89.809 30.713-143.073 41.604-174.318 30.713-27.851-7.476-52.669-36.314-73.525-84.372l-134.99 48.059zM5296.095-63.328l-46.87 19.285 7.089 56.836 304.123 52.176 15.168-76.396c-69.478-15.75-126.768-45.417-171.287-82.113-45.139-39.206-68.774-79.167-75.207-123.643-8.39-57.999 12.498-108.407 65.154-150.801 47.54-42.755 122.074-69.123 214.795-83.596 95.379-10.741 170.843-1.74 230.634 26.993 58.313 28.181 91.649 75.361 99.807 139.396 6.325 43.683-3.114 88.591-29.378 133.673-26.332 47.508-64.72 89.968-114.638 125.987l53.284 81.158c80.221-50.195 136.281-104.432 168.515-169.151 33.803-64.317 45.915-135.934 33.803-212.050-13.177-112.398-66.009-198.662-151.017-256.011-86.977-59.184-191.303-80.812-318.298-63.527-119.374 18.422-215.226 63.543-282.005 144.851-67.419 77.699-93.313 169.901-80.128 275.662 5.021 28.039 12.73 54.25 24.855 80.659 13.557 26.487 29.060 54.765 51.675 80.659zM3945.645 170.332l-10.731 256.277 69.325 1.437c0.915-23.631 8.293-39.222 21.529-45.796 12.174-8.758 41.986-12.4 87.849-10.727l58.096 1.931-8.211 194.629h-57.22c-46.86-2.195-76.597-8.839-88.343-17.55-12.73-8.080-18.121-25.361-18.126-47.803l-68.335-3.196-10.217 254.094 71.268 3.116c1.931-22.816 9.031-38.718 20.026-47.725 13.23-6.582 42.481-10.529 88.896-6.582l222.434 6.582c46.433 3.443 75.971 9.018 88.16 17.537 10.731 10.78 16.816 26.065 16.635 50.246l70.277 1.68 10.731-256.969h-68.014c-2.256 22.363-8.846 37.73-22.514 46.578-11.728 8.521-42.23 10.212-87.65 8.521l-96.679-5.401 8.293-194.371 97.7 5.401c45.858 0 74.727 6.571 86.918 15.1 11.728 8.716 17.123 26.384 17.123 48.317l68.316 3.391 11.728-255.078-71.538-2.921c-2.455 22.702-9.282 37.846-21.959 48.254-12.225 6.877-41.783 8.33-87.207 6.877l-222.922-6.877c-46.683-3.318-73.473-8.734-85.9-17.484-12.986-10.727-18.908-25.876-18.908-49.728l-70.786-1.67zM1984.627 557.349c0 0-5.258 22.236-11.177 60.274-5.917 37.913-9.521 50.554-9.521 50.554l30.612 5.067c2.737-10.347 6.755-16.111 12.33-20.044 6.231-2.302 18.682-2.302 38.102 1.518l94.765 16.406c19.084 3.786 31.020 7.367 35.242 12.889 4.956 4.084 6.747 12.506 5.045 22.746l30.316 4.414 20.583-110.016-30.719-5.39c-2.195 9.829-6.433 16.543-12.558 19.529-5.579 2.955-18.572 2.334-37.796-0.866l-95.044-17.062c-19.115-3.579-31.367-7.372-35.6-12.864-4.533-4.199-5.694-11.378-4.533-22.123l-30.068-5.038zM1963.203 680.857l-25.753 90.631 116.41 113.919-64.668-18.875c-19.333-4.814-30.614-10.020-34.951-14.62-3.788-5.2-5.473-12.561-2.521-22.254l-28.498-8.015-22.914 79.478 29.663 8.828c2.955-11.346 7.623-16.406 13.942-18.115 6.105-1.897 18.655-0.43 37.25 4.635l167.574 47.009 10.546-39.395-155.774-153.237 111.356 31.818c19.517 4.659 30.586 9.581 34.709 15.194 4.231 4.199 4.747 12.432 2.737 22.123l28.83 8.127 22.995-80.214-29.631-8.339c-3.471 10.421-7.915 16.245-14.035 18.875-6.433 1.465-18.684 0-37.987-6.117l-91.994-25.513c-19.655-4.85-30.935-10.318-35.276-15.595-3.984-4.414-4.417-12.639-2.112-22.15l-29.853-8.178zM2811.018 1419.911l29.571-64.363-119.408-12.93 89.853 77.302zM2942.642 1308.489c2.169 0 3.837 0 7.489 0 38.641 3.539 64.971-5.626 78.083-25.649l45.104 20.036-61.043 131.626-43.406-18.72c5.923-12.717 8.946-22.964 6.604-30.117-0.804-7.11-7.285-13.051-16.241-16.371-1.84 0-2.306-0.976-4.814-2.338-2.169 0-4.3-1.312-6.479-1.312l-55.679-9.243-44.627 98.96 42.305 39.098c2.341 0.976 4.125 3.487 6.481 3.487 2.116 1.478 5.113 3.779 7.676 4.759 8.434 3.363 13.891 4.643 20.026 0 4.814-3.269 10.254-10.542 15.25-20.839l1.628-4.59 43.143 20.667-70.803 153.959-44.26-19.648c5.951-19.91-3.024-40.45-26.88-62.994l-1.631-1.23-225.524-207.83 33.518-72.31 294.041 20.638zM1577.067-669.779l61.657 72.052 160.165-31.171-51.713 42.541c-15.18 11.867-25.733 19.201-32.211 19.201-5.662 0.866-12.747-2.302-19.899-9.698l-22.798 19.5 53.605 63.303 24.077-20.193c-6.531-7.614-9.488-14.948-7.188-20.85 0.915-6.149 10.141-15.595 25.324-28.464l132.209-109.99-26.275-31.004-215.359 41.51 88.531-73.763c14.885-12.637 25.753-19.5 32.508-20.036 6.011 0 13.427 3.164 20.139 10.102l23.645-18.297-54.745-64.091-24.077 20.255c6.755 7.341 8.655 14.541 7.267 20.741-1.468 6.009-10.012 15.682-25.411 28.566l-74.1 60.709c-14.349 12.622-25.209 19.5-31.862 19.792-6.123 0-13.074-2.737-20.255-10.124l-23.245 19.412zM-24648.509 120.071c0-13875.569 11307.156-25173.842 25213.034-25173.842 13903.338 0 25214.543 11298.148 25214.543 25173.842 0 13894.813-11311.059 25183.207-25214.543 25183.207-13905.636 0-25213.034-11288.39-25213.034-25183.207zM-24119.068 120.071c0 13600.78 11070.178 24666.101 24683.537 24666.101 13607.107 0 24683.026-11065.468 24683.026-24666.101 0-13579.583-11076.126-24651.439-24683.026-24651.439-13613.341 0-24683.537 11072.017-24683.537 24651.439z"  horiz-adv-x="1024" />

    
    <glyph glyph-name="zuidahua" unicode="&#58885;" d="M64 768l0-128 0-576 64 0 768 0 64 0 0 64L960 640 960 768 64 768zM896 128 128 128 128 640l768 0L896 128z"  horiz-adv-x="1024" />

    
    <glyph glyph-name="wenjianjia" unicode="&#58893;" d="M1.740488-34.749324 1.740488 807.009777c0 48.728937 39.315998 88.990223 88.47098 88.990223L460.937493 896a67.15 67.15 0 0 1 89.203245-88.990223l0-50.140212L525.523305 756.869565c-14.831704 0-24.337841-12.754733-24.337841-21.302268 0-9.173289 7.98835 70.057832 0.079884 70.057832 0 23.672145-17.867277 41.632619-40.341169 41.632619L90.25141 847.257749c-22.473892 0-40.727273-18.359892-40.727273-40.247972L49.524137 233.339713ZM1034.554302 571.14042 1034.554302 667.892657A30.25 30.25 0 0 0 993.840343 708.167256L525.523305 708.167256c-13.313917 0-24.337841 12.421885-24.337841 25.842313 0 14.645309 14.978157 23.459122 24.337841 22.886624L994.54598 756.896193a66.7 66.7 0 0 1 88.457666-88.976909l0-96.778864ZM987.502918-127.946744 88.107869-127.946744c-47.743707 0-98.176825 21.794882-86.367381 93.929686 21.781569 133.019347 92.678178 519.056376 92.678178 519.056376 1.411275 48.023299 40.021635 86.154358 86.367381 86.154358L1080.886734 571.193676c47.757021 0 86.367381-39.542334 86.367381-88.976909a6.74 6.74 0 0 1 70.563761-4.233826L1073.870299-41.140004c-1.331392-48.009985-39.315998-86.859996-86.367381-86.859996l0 0Zm-937.299771 87.578947c0.705638-21.88808 17.547743-38.836696 37.904722-38.836696L987.502918 1100.408571c21.075931 0 31.873518 18.546287 37.918036 40.261286a16.41 16.41 0 0 0 70.563761 4.939463l92.678178 518.350739C1118.085818 505.462867 1101.257027 523.103807 1080.886734 523.103807L180.786047 523.103807c-21.062617 0-37.904722-18.359892-37.904722-40.953609l0-4.233826L50.189833-40.421053l0 0Z"  horiz-adv-x="1168" />

    
    <glyph glyph-name="chaxun" unicode="&#58957;" d="M1023.727-31.348 809.818 184.232c54.105 74.02 86.045 165.265 86.045 263.972C895.863 695.516 695.378 896 448.066 896 200.757 896 0.272 695.516 0.272 448.204s200.484-447.791 447.794-447.791c98.862 0 190.232 32.035 264.312 86.29l214.699-214.699L1023.727-31.348zM447.859 129.277c-176.235 0-319.099 142.865-319.099 319.097 0 176.235 142.865 319.099 319.099 319.099 176.23 0 319.099-142.865 319.099-319.099C766.958 272.142 624.088 129.277 447.859 129.277z"  horiz-adv-x="1024" />

    
    <glyph glyph-name="guanbi" unicode="&#59255;" d="M830.606452 789.470968 512 470.864516 193.393548 789.470968 106.529032 702.606452 425.083871 384 106.529032 65.393548 193.393548-21.470968 512 297.083871 830.606452-21.470968 917.470968 65.393548 598.864516 384 917.470968 702.606452Z"  horiz-adv-x="1024" />

    
    <glyph glyph-name="yuanquangou" unicode="&#59047;" d="M512 896C230.4 896 0 665.6 0 384c0-281.6 230.4-512 512-512 281.6 0 512 230.4 512 512C1024 665.6 793.6 896 512 896zM834.56 527.36l-378.88-358.4c-10.24-10.24-25.6-15.36-35.84-15.36-15.36 0-30.72 5.12-40.96 15.36l-163.84 174.08C209.92 353.28 204.8 363.52 204.8 373.76 204.8 384 209.92 389.12 215.04 399.36c5.12 5.12 15.36 10.24 25.6 10.24 10.24 0 20.48-5.12 25.6-10.24l153.6-163.84 363.52 348.16C788.48 583.68 798.72 588.8 808.96 588.8c10.24 0 20.48-5.12 25.6-10.24C849.92 563.2 844.8 542.72 834.56 527.36z"  horiz-adv-x="1024" />

    
    <glyph glyph-name="xiugai" unicode="&#59176;" d="M339.096684 341.58929c-0.608987-0.762483-1.231165-1.600915-1.497984-2.591243l-47.091872-172.647545c-2.742141-10.055183 0.063957-20.923814 7.504312-28.541649 5.573621-5.408333 12.911646-8.404302 20.70836-8.404302 2.589644 0 5.179888 0.303794 7.718767 0.989329l171.466346 46.749304c0.253828 0 0.380742-0.253828 0.584204-0.253828 1.980657 0 3.910349 0.735501 5.38275 2.235484l458.447573 458.394009c13.634756 13.635155 21.100694 32.198569 21.100694 52.411265 0 22.878488-9.725406 45.782759-26.713888 62.745858l-43.295646 43.370994c-16.987482 17.012865-39.917936 26.739271-62.77224 26.739271-20.212296 0-38.774711-7.465339-52.460232-21.051127L339.78222 343.162224C339.300147 342.731516 339.452044 342.096946 339.096684 341.58929M917.473745 682.387829l-45.530131-45.504548-73.842735 75.010943 44.895361 44.870378c7.084197 7.134563 20.872848 6.094268 28.998139-2.057605l43.296645-43.371394c4.544919-4.544319 7.134163-10.536856 7.134163-16.454244C922.425188 689.981281 920.647393 685.562677 917.473745 682.387829M420.633802 334.37718l330.794921 330.844887 73.842735-75.061508L495.111506 259.974825 420.633802 334.37718 420.633802 334.37718 420.633802 334.37718zM360.350674 200.251517l23.894799 87.7583 63.76157-63.762569L360.350674 200.251517 360.350674 200.251517 360.350674 200.251517zM946.52285 500.725996c-17.368024 0-31.614365-14.118428-31.664332-31.689914l0-427.365646c0-22.420799-18.181673-40.602272-40.629453-40.602272L151.251643 1.068164c-22.396815 0-40.692211 18.181673-40.692211 40.602272L110.559433 739.217299c0 22.422797 18.271012 40.655236 40.692211 40.655236l465.644693 0c17.41919 0 31.588583 14.169393 31.588583 31.613566 0 17.41959-14.169393 31.614965-31.588583 31.614965L146.439906 843.101065c-54.658741 0-99.109004-44.437671-99.109004-99.109604l0-707.145755c0-54.695716 44.450263-99.082622 99.109004-99.082622l732.562922 0c54.671733 0 99.135586 44.386706 99.135586 99.082622L978.138414 469.213961C978.035484 486.607568 963.842107 500.725996 946.52285 500.725996"  horiz-adv-x="1024" />

    
    <glyph glyph-name="zhankai" unicode="&#59311;" d="M336.521406-6.413827c12.252045 0 24.499997 4.560876 33.851993 13.712303l350.925464 343.553566c18.693758 18.273179 18.693758 47.948035 0 66.25089L370.374422 760.687198c-18.696828 18.302855-48.977481 18.302855-67.671239 0-18.696828-18.273179-18.696828-47.943942 0-66.25089l317.073472-310.445518-317.073472-310.411749c-18.696828-18.302855-18.696828-47.948035 0-66.250889 9.315156-9.181103 21.567201-13.741979 33.818223-13.741979z"  horiz-adv-x="1024" />

    
    <glyph glyph-name="xiangshangjiantouarrowup" unicode="&#58625;" d="M880.102 185.173c18.020-17.82 47.144-17.82 65.097 0 17.954 17.753 17.954 46.611 0 64.429l-401.157 395.954c-18.020 17.82-47.077 17.82-65.097 0l-401.157-395.953c-17.954-17.82-18.020-46.611 0-64.429s47.21-17.82 65.097-0.067l368.641 350.142 368.576-350.076z"  horiz-adv-x="1024" />

    
    <glyph glyph-name="wenjianjia1" unicode="&#59144;" d="M1171.098 588.538h-1113.834c-56.957 0-59.77-29.533-56.254-65.396l41.206-585.747c2.813-35.862 11.251-65.396 67.505-65.396h1011.873c57.661 0 63.989 29.533 67.505 65.396l38.675 592.779c2.813 35.862 0.281 58.364-56.676 58.364zM1159.144 744.644c-1.406 39.378-14.064 49.222-48.519 49.222h-458.472c-69.615 0-78.053-0.703-130.791 55.551-43.597 47.113-26.721 46.48-117.431 46.48h-241.19c-55.551 0-75.24 4.922-80.865-53.442-4.922-53.442-16.173-182.826-17.579-203.218h1099.77z"  horiz-adv-x="1228" />

    
    <glyph glyph-name="setting" unicode="&#58917;" d="M1022.208 245.2992c1.4336-8.8064 1.0752-19.4048-1.1264-31.8464-2.2016-12.4928-5.8368-25.088-10.9568-37.9392-5.12-12.8-11.3664-24.3712-18.688-34.6112-7.3216-10.24-15.36-17.6128-24.2176-22.016a53.1456 53.1456 0 0 0-23.04-6.5536c-6.656 0-13.9264 1.4336-22.016 4.4032a228.6592 228.6592 0 0 1-27.4432 6.0416 128 128 0 0 1-33.536 1.0752 161.4336 161.4336 0 0 1-34.0992-7.168 66.56 66.56 0 0 1-29.1328-18.6368 108.1856 108.1856 0 0 1-30.72-62.6688c-2.9696-23.4496 0.3072-45.824 9.8816-67.072 7.3216-14.6432 6.1952-29.2864-3.328-43.9296a82.176 82.176 0 0 0-20.8896-18.1248c-9.5232-6.2464-19.968-11.9296-31.3344-17.0496-11.3152-5.12-23.2448-9.216-35.6864-12.0832a146.176 146.176 0 0 0-32.9728-4.4032 28.0064 28.0064 0 0 0-18.688 7.68 41.6256 41.6256 0 0 0-12.0832 16.4864h-1.1264a135.8848 135.8848 0 0 1-41.216 58.8288 101.2736 101.2736 0 0 1-67.584 24.7296c-24.9344 0-47.4624-8.2432-67.584-24.7296a133.632 133.632 0 0 1-42.3424-57.7024 37.4272 37.4272 0 0 0-16.4864-19.2512 49.3568 49.3568 0 0 0-24.1664-6.0416c-10.24 0-21.8112 1.8432-34.6112 5.4784-12.8 3.6864-25.6512 8.2432-38.5024 13.7216a184.1152 184.1152 0 0 0-34.6112 19.2512c-10.24 7.3216-17.92 14.6432-23.04 22.016a33.536 33.536 0 0 0-6.0928 18.1248c-0.3584 6.9632 2.4064 16.64 8.2432 29.1328 8.0896 16.8448 11.1616 36.0448 9.3696 57.7024-1.8432 21.6064-11.2128 41.5744-28.0576 59.904a71.4752 71.4752 0 0 1-37.376 21.4016 151.7568 151.7568 0 0 1-41.728 3.84c-15.4112-0.7168-31.1808-3.6352-47.3088-8.7552-10.24-2.9696-20.48-2.2016-30.72 2.2016-8.0896 2.9184-15.616 9.728-22.528 20.3264a227.6864 227.6864 0 0 0-31.3856 74.752c-2.9184 13.5168-3.6352 24.6784-2.2016 33.4848 2.2016 16.128 9.5744 26.368 22.016 30.7712 22.016 8.8064 41.7792 23.296 59.392 43.4176 17.5616 20.1728 26.3168 42.7008 26.3168 67.584 0 25.6512-8.7552 48.0256-26.368 67.072a162.7648 162.7648 0 0 1-59.392 41.7792C16.5376 498.1248 11.0592 503.4496 6.656 511.8464A55.2448 55.2448 0 0 0 0 537.7024c0 9.5232 1.4848 20.1216 4.4032 31.8464 2.9184 11.776 6.7584 23.0912 11.52 34.0992 4.7616 10.9568 10.24 21.0432 16.4864 30.208s13.0048 15.9232 20.3264 20.3264a25.4464 25.4464 0 0 0 17.0496 4.4032c5.5296-0.7168 11.5712-2.2016 18.1248-4.4032 22.016-8.8064 44.9024-11.52 68.7104-8.192a111.616 111.616 0 0 1 63.232 31.2832c8.7552 8.8064 15.1552 19.6096 19.2 32.4096a178.688 178.688 0 0 1 7.68 37.888 176.0256 176.0256 0 0 1 0 34.0992c-1.0752 10.24-1.9968 17.6128-2.7136 22.016a117.6576 117.6576 0 0 0-3.84 15.36 23.808 23.808 0 0 0 1.6384 15.36c4.4032 10.2912 12.288 19.3024 23.6032 26.9824a184.832 184.832 0 0 0 36.864 19.2c13.1584 5.12 26.0096 9.0112 38.4 11.5712 12.4928 2.56 22.3744 3.84 29.696 3.84 9.5744 0 17.0496-3.072 22.528-9.3184 5.5296-6.2464 9.3696-12.6464 11.5712-19.2512 8.0384-19.8144 21.248-37.1712 39.5776-52.224 18.3296-15.0016 39.936-22.528 64.8192-22.528 25.6512 0 48.384 7.168 68.1472 21.4528 19.8144 14.2848 33.7408 32.4096 41.7792 54.3744 2.9184 5.888 7.5264 11.9296 13.7728 18.176C638.7712 892.8768 645.12 896 651.776 896c10.24 0 21.4528-1.4848 33.536-4.4032 12.0832-2.9184 24.0128-6.9632 35.7376-12.0832 11.7248-5.12 22.528-11.7248 32.4096-19.7632 9.8816-8.0896 17.7664-16.896 23.6544-26.4192 3.6352-5.8368 4.7616-12.288 3.2768-19.2a67.5328 67.5328 0 0 0-4.4032-14.848 116.5824 116.5824 0 0 1-8.8064-67.072c3.6864-23.4496 14.336-43.9296 31.8976-61.5424 17.5616-17.5616 39.2192-27.2896 64.8192-29.1328 25.6512-1.8432 49.4592 2.4064 71.4752 12.6464a33.8944 33.8944 0 0 0 21.4016 4.4032 33.4848 33.4848 0 0 0 21.504-9.8816c10.9568-10.24 20.6336-25.856 29.0816-46.7456 8.448-20.8384 14.08-41.9328 17.0496-63.1808 1.4336-12.4416-0.5632-22.1696-6.0416-29.1328a40.96 40.96 0 0 0-17.0496-13.7216 129.024 129.024 0 0 1-58.2656-42.3424 107.008 107.008 0 0 1-24.1664-68.6592c0-24.9344 6.7584-46.7456 20.3264-65.4336s31.3344-32.0512 53.2992-40.0896c5.12-2.9696 9.5232-5.888 13.2096-8.8064a49.408 49.408 0 0 0 16.4864-25.2928zM511.0784 146.432c32.9728 0 64.1536 6.2464 93.44 18.688a234.5984 234.5984 0 0 1 76.3904 51.712c21.6064 21.9136 38.656 47.4112 51.0976 76.3392a232.448 232.448 0 0 1 18.688 92.8768 232.448 232.448 0 0 1-18.688 92.8768 240.64 240.64 0 0 1-51.0976 75.8272 239.0016 239.0016 0 0 1-76.3904 51.1488 236.3392 236.3392 0 0 1-93.44 18.688 232.448 232.448 0 0 1-92.8768-18.688 240.64 240.64 0 0 1-75.776-51.1488 240.64 240.64 0 0 1-51.2-75.776 232.448 232.448 0 0 1-18.6368-92.928c0-32.9728 6.2464-63.9488 18.688-92.8768s29.4912-54.4256 51.0976-76.3904c21.6064-22.016 46.8992-39.2192 75.8272-51.6608a232.448 232.448 0 0 1 92.8768-18.688z"  horiz-adv-x="1024" />

    
    <glyph glyph-name="celiang" unicode="&#58886;" d="M948.046 646.398l-246.395 246.325-625.698-625.772 246.395-246.322 625.698 625.769zM669.876 799.359l153.999-153.957-31.28-31.285-153.997 153.947 31.278 31.296zM576.028 705.49l92.396-92.369-31.285-31.296-92.396 92.368 31.285 31.297zM482.165 611.621l92.4-92.368-31.28-31.293-92.396 92.369 31.276 31.291zM388.311 517.759l92.403-92.369-31.285-31.296-92.401 92.38 31.283 31.285zM294.465 423.891l92.397-92.369-31.285-31.29-92.397 92.368 31.285 31.291zM200.613 330.028l153.995-153.956-31.285-31.287-153.995 153.958 31.285 31.285zM112.291-124.722h835.755v72.677h-835.755v-72.677zM112.291-124.722z"  horiz-adv-x="1024" />

    
    <glyph glyph-name="bianji" unicode="&#58887;" d="M201.676 771.17c-54.616 0-99.27-44.377-99.27-99.27v-598.226c0-54.614 44.654-98.991 99.27-98.991h598.503c54.614 0 98.992 44.377 98.992 98.991V466.805l102.7 99.27V37.27c0-91.312-77.378-165.271-168.692-165.271H165.271C73.964-128 0-54.041 0 37.27V698.069C0 789.374 73.964 873.576 165.27 873.576h528.806l-98.992-102.412H201.676v0.006z m366.1-486.139l-221.87-62.86 63.433 220.453L567.777 285.03z m22.198 22.186l-158.733 157.31 348.742 346.46L938.716 653.69 589.974 307.217zM1010.4 724.802l-47.508-47.225L804.166 835.17l47.503 47.224c17.642 17.35 45.227 18.21 61.448 1.986l99.269-98.42c16.219-16.208 15.358-43.81-1.986-61.158z m0 0"  horiz-adv-x="1025" />

    
    <glyph glyph-name="xitongguanli" unicode="&#59238;" d="M859.507145 127.002298L679.920855 304.439692c11.563106 24.251824 18.009793 51.47117 18.009794 80.020786 0 102.94234-83.192965 186.135305-186.237634 186.135305-17.088838 0-33.973019-2.251224-49.731588-6.651344l79.7138-79.406815c33.052064-33.25672 30.493854-88.923354-5.321075-124.738284-35.712601-35.610273-91.68622-38.066154-124.738283-5.321075l-79.509144 80.020786c-4.40012-15.860897-6.753672-32.540422-6.753672-49.936245 0-103.146997 83.397622-186.749276 186.237634-186.749275 28.344959 0 55.768962 6.446687 79.7138 18.112121l178.869991-177.744379c22.819227-22.409913 60.987709-21.079644 85.444189 3.78615 24.45648 24.251824 26.196063 62.727291 3.888478 85.034875m-48.196662-72.346157c-17.293495 0-31.926451 14.121315-31.926452 31.721794 0 16.986509 14.632957 31.005496 31.926452 31.005497 17.498151 0 31.619466-13.916658 31.619466-31.005497 0-17.498151-14.121315-31.721795-31.619466-31.721794m91.276906 412.383331h-18.21445l-42.363945 0.409314h-0.306985c-8.493255 0.818627-16.577196 3.78615-23.740182 8.390926-0.511642 0-0.61397 0.204657-0.920956 0.61397-15.04227 9.721195-25.070451 27.219346-24.763465 46.45708 0 6.139702 1.22794 11.665434 3.172179 17.395823 1.739582 6.139702 4.809433 12.074748 8.902568 16.98651l9.311882 9.618867 21.181973 20.874987 12.381733 12.688718c18.112122 23.330868 18.112122 56.792245-0.613971 80.327771L810.287199 718.153293c-24.251824 18.521435-57.610872 19.135405-81.248726 1.125612l-13.20036-12.58639-29.47057-30.186869h-0.409314c-16.065554-12.995703-38.27081-15.553912-56.587588-7.469971-6.344359 2.865194-11.972419 6.446687-17.498152 11.870091-8.697911 9.41421-14.121315 20.670331-15.553912 32.745078V774.740881c-3.683821 29.675227-27.219346 53.006096-57.508544 56.485261h-51.880484c-29.777556-3.274508-53.722394-26.605376-58.020186-56.075947v-60.680724c-0.204657-1.534926-0.716299-3.274508-0.818627-4.604776v-0.511642c-0.511642-1.534926-0.61397-3.069851-0.818626-4.40012-0.61397 0-0.61397-0.61397-0.613971-0.61397-0.511642-1.330269-0.818627-3.479165-1.637254-4.40012-0.511642-1.739582-1.432597-3.069851-2.251224-4.604777v-0.204657c-3.172179-6.549016-7.572299-12.074748-13.507345-16.884181-9.618867-8.18627-22.409913-13.20036-36.121914-13.200359-12.893375 0-24.968122 4.40012-34.280004 12.074747l-9.41421 9.516539-21.079645 20.67033-12.791046 12.995703c-23.535525 18.009793-56.894574 18.009793-80.430099-0.920955l-37.145198-36.735885c-18.726092-23.330868-19.033077-56.792245-1.125612-80.737084l12.791046-12.586389 29.982213-29.879884c0.61397-0.920955 1.023284-1.739582 1.637253-2.660538 0.409313-0.204657 0.716299-0.920955 1.534926-1.944239 0.409313-0.511642 0.716299-1.739582 1.330269-2.455881 0-0.204657 1.023284-1.125612 1.023283-1.739582 0.511642-0.716299 1.125612-2.148896 1.739583-3.069851 0-0.511642 0.204657-1.125612 0.511642-1.739583 0.511642-0.716299 0.716299-2.148896 1.637254-3.274507 0-0.409313 0.102328-0.920955 0.306985-1.534926 0.102328-1.739582 1.023284-3.069851 1.023283-4.809433 0.511642-1.739582 0.716299-3.274508 0.716299-5.014091 2.455881-16.474868-3.172179-33.666034-15.963226-46.354751-9.107225-9.209553-20.670331-14.530629-32.745078-15.860898h-60.680724c-29.777556-4.195463-53.210752-27.935645-56.587588-57.406215l-0.204657-52.289797c3.069851-29.982212 26.400719-53.517738 56.075947-57.610873H139.217748l42.363945-0.61397c1.534926-0.204657 3.683821-0.204657 5.116418-0.716299h1.432598c1.330269-0.511642 2.148896-0.920955 3.683821-1.125612 22.921555-7.060658 39.396423-28.344959 39.396422-53.620066 0-12.791046-4.40012-25.275107-12.177076-34.791645l-9.311881-9.004897-21.38663-20.670331-12.688718-12.688718c-17.805136-23.944839-17.805136-57.201559 0.613971-80.532427l37.04287-37.349855c23.637854-18.726092 56.689917-18.930748 80.737084-0.716299l12.586389 12.58639 30.391526 29.675227c0 0.409313 0.204657 0.409313 0.61397 0.61397 1.125612 1.125612 2.455881 1.739582 3.274508 2.865195 1.023284 0.204657 1.22794 0.204657 2.046568 0.716298 0.511642 0.409313 1.534926 1.125612 2.251224 1.739583 1.023284 0.61397 2.353553 0.716299 3.479164 1.330268 0.61397 0.409313 1.125612 0.511642 1.330269 0.920956 1.637254 0.204657 2.660538 0.716299 4.809433 1.330269 1.841911 0.511642 3.069851 1.330269 4.40012 1.330268h0.511642c1.432597 0.409313 2.967523 0.61397 4.604777 0.920956h0.409313c1.330269 0 2.660538 0 3.78615 0.61397 15.451584 0.511642 31.210153-4.809433 42.67093-16.679524 9.516538-9.209553 14.530629-21.079644 16.167883-33.154392l-0.204657-12.995703V-5.819926c3.581493-30.084541 27.424003-53.620066 57.201559-56.689917h52.289797c29.982212 3.069851 53.517738 26.400719 57.610873 55.666633v18.009793l0.511641 30.596183v12.279404c1.125612 10.949136 5.01409 19.954032 11.051464 27.935646 0.61397 0.920955 1.125612 1.534926 1.739583 2.148895 0.409313 0.204657 0.818627 1.330269 1.739582 1.739583 3.274508 3.683821 7.060658 6.856001 11.153792 9.721195 1.22794 0.204657 2.455881 1.125612 3.274508 1.739582 0.920955 0.511642 0.920955 0.511642 1.330269 0.511642 0.511642 0.204657 0.920955 0.204657 1.023284 0.204657 1.023284 0.716299 1.944239 0.716299 3.172179 1.330268L579.229739 149.309883c-21.693614-6.344359-44.615169-9.41421-68.253023-9.41421-135.380434 0.204657-244.462476 109.798341-243.950834 244.564805 0 135.482762 110.002998 244.87179 245.281103 244.564804 134.97112-0.511642 244.053163-110.207655 243.848506-245.281103-0.102328-22.921555-3.581493-45.740781-9.721195-66.411112l50.447886-49.62926c2.558209 5.935045 6.651344 11.051464 11.256121 16.270211 5.218747 5.01409 12.074748 8.80024 18.316778 11.256121 4.707105 2.148896 9.618867 3.683821 14.325972 4.195463H901.768762c29.675227 3.990806 53.108424 27.526332 56.48526 57.201559v52.801439c-2.967523 29.675227-26.196063 53.620066-55.666633 57.610872"  horiz-adv-x="1024" />

    
    <glyph glyph-name="view_column" unicode="&#59017;" d="M191.348 705.908h65.119v-642.109h-65.119v642.109zM475.953 705.908h65.119v-642.109h-65.119v642.109zM767.981 705.908h65.119v-642.109h-65.119v642.109z"  horiz-adv-x="1024" />

    
    <glyph glyph-name="jiantouzuo" unicode="&#59246;" d="M296.304132 358.598876l20.433455-20.467306c3.905587-3.91405 8.378182-6.888727 13.134281-9.008661l397.46433-398.115967c16.637884-16.663273 43.744264-16.527868 60.542942 0.296198l20.281124 20.310744c16.798678 16.824066 16.934083 43.976992 0.296199 60.644496l-377.872926 378.490711 372.139372 372.757157c16.764826 16.794446 16.629421 44.146248-0.296198 61.10995l-20.437686 20.467306c-16.929851 16.963702-44.24357 17.090645-61.008397 0.30043L296.003702 419.713058c-16.764826-16.794446-16.629421-44.154711 0.30043-61.114182z"  horiz-adv-x="1024" />

    
    <glyph glyph-name="fuxuankuang" unicode="&#58932;" d="M858.14784 834.00192H165.84704c-57.25696 0-103.84896-46.592-103.84896-103.84896v-692.3008c0-57.25696 46.592-103.84896 103.84896-103.84896h692.3008c57.25696 0 103.84896 46.59712 103.84896 103.84896V730.15296c0.00512 57.25696-46.59712 103.84896-103.84896 103.84896z m-67.06176-301.19424l-332.5952-336.20992c-0.08192-0.08192-0.25088-0.128-0.32768-0.25088-0.11776-0.08192-0.11776-0.25088-0.25088-0.3328-2.6624-2.56512-5.93408-4.15232-9.0112-5.888-1.54112-0.87552-2.78528-2.21184-4.4032-2.83648a42.0096 42.0096 0 0 0-15.52896-3.0208 41.23648 41.23648 0 0 0-15.70304 3.10272c-1.65888 0.71168-2.9952 2.11968-4.57216 2.9952-3.07712 1.74592-6.27712 3.28192-8.92928 5.89824-0.08192 0.08192-0.128 0.25088-0.20992 0.3328-0.08192 0.12288-0.24576 0.12288-0.32768 0.24064l-163.57376 168.10496a41.52832 41.52832 0 0 0 0.82944 58.74176c16.44032 15.9488 42.7008 15.65696 58.73152-0.82432l134.04672-137.74848 302.8224 306.09408c16.10752 16.32768 42.4448 16.45568 58.73152 0.3328 16.22528-16.1536 16.39424-42.44992 0.27136-58.73152z"  horiz-adv-x="1024" />

    
    <glyph glyph-name="xiala" unicode="&#58891;" d="M480 153.6c-12.8 0-32 6.4-38.4 19.2l-300.8 320c-19.2 19.2-19.2 51.2 0 70.4 6.4 6.4 19.2 12.8 32 12.8 19.2 0 32-6.4 38.4-19.2l268.8-281.6 268.8 281.6c6.4 12.8 19.2 19.2 38.4 19.2 12.8 0 25.6-6.4 32-12.8 19.2-19.2 19.2-51.2 0-70.4l-300.8-320c-12.8-12.8-25.6-19.2-38.4-19.2z"  horiz-adv-x="1024" />

    
    <glyph glyph-name="duobianxing" unicode="&#58889;" d="M915.6 209.5L493.2 460.8c-15.4 9.2-25.3 2.2-22.1-15.6l89.8-486c3.3-17.7 14.4-20.2 24.7-5.4 0 0 57.4 82.3 104.5 132.5l90.3-134.5c8.6-12.8 26-16.2 38.7-7.4l30.3 21c12.6 8.7 15.9 26.4 7.3 39.2L766.4 139c60.4 24.9 145.6 46 145.6 46 17.4 4.3 19 15.3 3.6 24.5zM485.9 10l-0.2-0.2-323.9 187.4 0.3 374.1 324.1 186.9 323.9-187.4-0.2-249.7h64l0.2 286.6L486.3 832 98.1 608.3l-0.3-448L485.6-64l0.3 0.2V10z"  horiz-adv-x="1024" />

    
    <glyph glyph-name="cejuli" unicode="&#59039;" d="M852.418668 203.028299v-39.892569H171.579285v39.892569H1.369695v-159.627581h170.20959v39.892569h680.839383v-39.892569h170.210613V203.028299H852.418668zM341.789898 560.865173l84.218101-278.050713 72.193229 17.117866 79.399351-19.943215 104.608499 365.984439V282.81446h85.105307V721.746304h-85.105307v-13.648858l-65.657372 16.502859-112.698758-394.499889-118.623701 391.645888-43.438325-10.299577v10.299577h-85.105307v-438.932868h85.105307V560.865173z"  horiz-adv-x="1024" />

    
    <glyph glyph-name="minus" unicode="&#58902;" d="M123.638 461.673h776.723c42.875 0 77.673-34.797 77.673-77.673s-34.797-77.673-77.673-77.673h-776.723c-42.953 0-77.673 34.797-77.673 77.673s34.719 77.673 77.673 77.673z"  horiz-adv-x="1024" />

    
    <glyph glyph-name="show-big-thumbnails" unicode="&#59254;" d="M1.596-128h454.188V326.226H1.596V-128z m0 569.775h454.188V896H1.596v-454.225zM568.217 896v-454.225h454.188V896H568.217z m0-1024h454.188V326.226H568.217V-128z"  horiz-adv-x="1024" />

    
    <glyph glyph-name="shousuo" unicode="&#58899;" d="M919.2 653.817h-813.158c-32.453 0-58.761 26.307-58.761 58.761s26.307 58.761 58.761 58.761h813.158c32.453 0 58.761-26.307 58.761-58.761s-26.307-58.761-58.761-58.761zM919.2 326.111h-813.158c-32.453 0-58.761 26.307-58.761 58.761s26.307 58.761 58.761 58.761h813.158c32.453 0 58.761-26.307 58.761-58.761s-26.307-58.761-58.761-58.761zM919.2-1.594h-813.158c-32.453 0-58.761 26.307-58.761 58.761s26.307 58.761 58.761 58.761h813.158c32.453 0 58.761-26.307 58.761-58.761s-26.307-58.761-58.761-58.761z"  horiz-adv-x="1024" />

    
    <glyph glyph-name="zuhe" unicode="&#58910;" d="M658.250232 798.477266H121.886483v-536.363749h243.818126V-30.454686h536.386328V505.909063H658.250232V798.477266z m-195.022889-341.34086h-195.045469l80.294245 80.294244-159.346593 159.324014 34.479559 34.479559 159.324013-159.324014 80.294245 80.294245v-195.068048z m305.596825-146.272812l-85.645689-85.623109 169.959162-169.981742-36.782713-36.760132-170.004322 169.936582-85.600529-85.623109v208.05151h208.074091z m-13.006042 283.42333V896H24.386329v-722.264344h243.795545V-128H999.613671V594.286924H755.818126z m195.000308-673.514267H316.954531V213.34086H73.136406V847.227343h633.886483v-292.568203h243.795545V-79.227343z"  horiz-adv-x="1024" />

    
    <glyph glyph-name="quanfuxianshi" unicode="&#58894;" d="M973.084444 106.382222c0 8.675556-7.253333 16.071111-17.493333 16.071111-5.831111 0-11.662222-2.844444-14.506667-7.253333l-26.168888-26.168889-34.986667-34.986667-132.551111 132.551112c-5.831111 5.831111-13.084444 10.24-21.902222 10.24-16.071111 0-29.155556-13.084444-29.155556-29.155556 0-8.675556 4.408889-16.071111 10.24-21.902222l132.551111-132.551111-32-32-26.168889-26.168889c-4.408889-2.844444-7.253333-8.675556-7.253333-14.506667 0-8.675556 7.253333-16.071111 16.071111-17.493333H955.733333c4.408889 0 8.675556 1.422222 11.662223 4.408889 2.844444 2.844444 4.408889 7.253333 4.408888 11.662222V87.608889l1.28 18.773333zM65.848889 643.84c5.831111 0 11.662222 2.844444 14.506667 7.253333l26.168888 26.168889 32 32L292.977778 557.937778c5.831111-4.408889 11.662222-7.253333 20.337778-7.253334 16.071111 0 29.155556 13.084444 29.155555 29.155556 0 7.253333-2.844444 14.506667-7.253333 20.337778L180.906667 751.644444l34.986666 34.986667 26.168889 26.168889c4.408889 2.844444 7.253333 8.675556 7.253334 14.506667 0 8.675556-7.253333 16.071111-16.071112 17.493333H67.271111c-5.831111 0-10.24-2.844444-13.084444-5.831111S49.777778 831.715556 49.777778 827.306667V661.333333c0-10.24 7.253333-17.493333 16.071111-17.493333zM727.04 569.6c7.253333 0 14.506667 2.844444 20.337778 7.253333l133.973333 133.973334 32-32 26.168889-26.168889c2.844444-4.408889 8.675556-7.253333 14.506667-7.253334 8.675556 0 16.071111 7.253333 17.493333 16.071112V827.306667c0 4.408889-1.422222 8.675556-4.408889 11.662222-2.844444 2.844444-7.253333 4.408889-11.662222 4.408889H789.475556c-8.675556 0-16.071111-7.253333-16.071112-17.493334 0-5.831111 2.844444-11.662222 7.253334-14.506666l26.168889-26.168889 33.564444-33.564445-133.973333-133.973333c-4.408889-5.831111-7.253333-11.662222-7.253334-20.337778-1.28-14.648889 11.804444-27.733333 27.875556-27.733333zM313.315556 214.186667c-8.675556 0-16.071111-2.844444-20.337778-8.675556L141.511111 54.044444l-33.564444 33.564445L81.777778 113.777778c-2.844444 4.408889-8.675556 7.253333-14.506667 7.253333-8.675556 0-16.071111-7.253333-17.493333-16.071111v-165.973333c0-4.408889 1.422222-8.675556 4.408889-11.662223 2.844444-2.844444 7.253333-4.408889 11.662222-4.408888H231.822222c8.675556 0 16.071111 7.253333 16.071111 17.493333 0 5.831111-2.844444 11.662222-7.253333 14.506667l-26.168889 26.168888-33.564444 33.564445 151.466666 151.466667c5.831111 5.831111 8.675556 13.084444 8.675556 20.337777 1.422222 14.648889-11.662222 27.733333-27.733333 27.733334z"  horiz-adv-x="1024" />

    
    <glyph glyph-name="xiangxiabiankuangsanjiao" unicode="&#59127;" d="M530.877 222.173L816.734 508.03c10.929 10.929 10.929 29.334 0 40.837-10.929 10.929-29.334 10.929-40.837 0L510.172 283.142 245.599 547.715c-10.929 10.929-29.334 10.929-40.837 0-10.929-10.929-10.929-29.334 0-40.837l284.703-284.703c12.077-11.502 29.908-11.502 41.418 0z"  horiz-adv-x="1024" />

    
    <glyph glyph-name="shanchu" unicode="&#58882;" d="M731.918 715.466H293.285c-40.383 0-73.106-32.72-73.106-73.103v-24.368h584.844v24.368c0.001 40.383-32.72 73.103-73.105 73.103m-127.696 48.735l10.756-76.91H410.225l10.756 76.91h183.24m5.855 48.735H415.128c-20.108 0-38.813-16.277-41.621-36.218L359.252 674.75c-2.784-19.917 11.4-36.194 31.508-36.194h243.685c20.108 0 34.293 16.276 31.484 36.217l-14.255 101.969c-2.786 19.917-21.49 36.194-41.598 36.194m134.026-243.675H281.1c-26.795 0-46.761-21.845-44.334-48.544l39.933-438.996c2.403-26.7 26.344-48.544 53.14-48.544h365.527c26.795 0 50.736 21.845 53.14 48.544l39.932 438.996c2.426 26.699-17.54 48.544-44.336 48.544M415.128 130.647h-73.106L317.653 471.79h97.474v-341.144z m146.211 0h-97.474V471.79h97.474v-341.144z m121.842 0h-73.106V471.79h97.474l-24.368-341.144z"  horiz-adv-x="1024" />

    


  </font>
</defs>
</svg>
